# xmcd
#
# Track frame offsets:
#	182
#	21500
#	38140
#
# Disc length: 756 seconds
#
# Revision: 0
# Processed by: cddbd v1.5.2PL0 Copyright (c) Steve Scherf et al.
# Submitted via: audiograbber 1.83.01
#
DISCID=1f02f203
DTITLE=Thomas Helmig - Lovers And Friends
DYEAR=1985
DGENRE=Pop
TTITLE0=Lovers And Friends
TTITLE1=Stupid Man (Live)
TTITLE2=Tippy Toe (Live)
EXTD=
EXTT0=
EXTT1=
EXTT2=
PLAYORDER=
